# xmcd
#
# Track frame offsets: 
#        150
#        17135
#        37707
#        56626
#        73745
#        102655
#        130876
#        146645
#        172133
#        198688
#        221927
#        249929
#        282346
#        307542
#        331849
#
# Disc length: 4623 seconds
#
# Revision: 0
# Processed by: cddbd v1.5.2PL0 Copyright (c) Steve Scherf et al.
# Submitted via: ExactAudioCopyFreeDBPlugin 1.0
#
DISCID=e3120d0f
DTITLE=Willy Michl - Best of Willy Michl - Blues Infusion Vol. 2
DYEAR=2015
DGENRE=Bavarian Blues
TTITLE0=Teufelstanz '88
TTITLE1=Bahnhofsblues
TTITLE2=Morgenstund
TTITLE3=Mein Traum
TTITLE4=Fuchsblues
TTITLE5=Geh mit mir
TTITLE6=Das Haus Am Nicklassee
TTITLE7=Stoned
TTITLE8=Der Falk
TTITLE9=Katmandu '88
TTITLE10=Vision
TTITLE11=Sag Mir, Dass Es Dir Gut Geht
TTITLE12=Zirkusplatz
TTITLE13=Herbstlieb
TTITLE14=Fliag Vogel Fliag
EXTD=
EXTT0=
EXTT1=
EXTT2=
EXTT3=
EXTT4=
EXTT5=
EXTT6=
EXTT7=
EXTT8=
EXTT9=
EXTT10=
EXTT11=
EXTT12=
EXTT13=
EXTT14=
PLAYORDER=
